<?xml version="1.0" encoding="utf-8"?>
<!-- Generator: Adobe Illustrator 13.0.0, SVG Export Plug-In . SVG Version: 6.00 Build 14948)  -->
<!DOCTYPE svg PUBLIC "-//W3C//DTD SVG 1.0//EN" "http://www.w3.org/TR/2001/REC-SVG-20010904/DTD/svg10.dtd">
<svg version="1.0" xmlns="http://www.w3.org/2000/svg" xmlns:xlink="http://www.w3.org/1999/xlink" x="0px" y="0px" width="16px"
	 height="48px" viewBox="0 0 16 48" enable-background="new 0 0 16 48" xml:space="preserve">
<filter  x="-0.35235882" y="-0.35235882" width="1.7047176" height="1.7047176" id="filter5011" inkscape:collect="always">
	<feGaussianBlur  id="feGaussianBlur5013" inkscape:collect="always" stdDeviation="3.0831397"></feGaussianBlur>
</filter>
<g id="svg19135" sodipodi:version="0.32" inkscape:export-ydpi="90" inkscape:export-xdpi="90" sodipodi:docname="audio-volume-medium.svg" sodipodi:docbase="/home/pavpan/Development/AWN/awn-extras-dev/src/volume-control/Themes/Minimal" inkscape:version="0.45.1" inkscape:export-filename="/home/guenther/Dokumente/Design/avn-audiocontrol.png" inkscape:output_extension="org.inkscape.output.svg.inkscape" xmlns:sodipodi="http://sodipodi.sourceforge.net/DTD/sodipodi-0.dtd" xmlns:inkscape="http://www.inkscape.org/namespaces/inkscape" xmlns:dc="http://purl.org/dc/elements/1.1/" xmlns:cc="http://web.resource.org/cc/" xmlns:rdf="http://www.w3.org/1999/02/22-rdf-syntax-ns#" xmlns:svg="http://www.w3.org/2000/svg">
	
		<sodipodi:namedview  width="16px" height="48px" id="base" showguides="true" showgrid="true" inkscape:cy="20.46512" bordercolor="#666666" pagecolor="#ffffff" inkscape:cx="41.05821" inkscape:zoom="6.4121454" borderopacity="0.20392157" inkscape:guide-bbox="true" inkscape:showpageshadow="true" inkscape:window-y="51" inkscape:window-x="33" inkscape:window-height="680" inkscape:window-width="1236" inkscape:document-units="px" inkscape:grid-bbox="true" inkscape:current-layer="layer1" inkscape:pageshadow="2" inkscape:pageopacity="0.0">
		</sodipodi:namedview>
	<g id="layer1" inkscape:label="Layer 1" inkscape:groupmode="layer">
		<g id="g6532" transform="translate(-451.86844,-35.5068)">
			<path id="rect139_1_" fill="#8AE234" d="M164.516,135.314h12.177c2.977,0,5.39,2.415,5.39,5.393v12.176
				c0,2.978-2.413,5.391-5.39,5.391h-12.177c-2.977,0-5.392-2.413-5.392-5.391v-12.176
				C159.125,137.729,161.54,135.314,164.516,135.314z"/>
			<path id="rect145_1_" fill="#73D216" d="M194.125,135.314H206.3c2.979,0,5.392,2.415,5.392,5.393v12.176
				c0,2.978-2.413,5.391-5.392,5.391h-12.175c-2.979,0-5.393-2.413-5.393-5.391v-12.176
				C188.732,137.729,191.146,135.314,194.125,135.314z"/>
			<path id="rect157_1_" fill="#4E9A06" d="M223.731,135.314h12.176c2.978,0,5.391,2.415,5.391,5.393v12.176
				c0,2.978-2.413,5.391-5.391,5.391h-12.176c-2.978,0-5.392-2.413-5.392-5.391v-12.176
				C218.34,137.729,220.754,135.314,223.731,135.314z"/>
			<path id="rect140_1_" fill="#FCAF3E" d="M164.516,76.1h12.177c2.977,0,5.39,2.415,5.39,5.393v12.176
				c0,2.978-2.413,5.391-5.39,5.391h-12.177c-2.977,0-5.392-2.413-5.392-5.391V81.492C159.125,78.515,161.54,76.1,164.516,76.1z"/>
			<path id="rect146_1_" fill="#F57900" d="M194.125,76.1H206.3c2.979,0,5.392,2.415,5.392,5.393v12.176
				c0,2.978-2.413,5.391-5.392,5.391h-12.175c-2.979,0-5.393-2.413-5.393-5.391V81.492C188.732,78.515,191.146,76.1,194.125,76.1z"
				/>
			<path id="rect158_1_" fill="#CE5C00" d="M223.731,76.1h12.176c2.978,0,5.391,2.415,5.391,5.393v12.176
				c0,2.978-2.413,5.391-5.391,5.391h-12.176c-2.978,0-5.392-2.413-5.392-5.391V81.492C218.34,78.515,220.754,76.1,223.731,76.1z"/>
			<path id="rect141_3_" fill="#729FCF" d="M164.516,164.924h12.177c2.977,0,5.39,2.413,5.39,5.391v12.175
				c0,2.979-2.413,5.393-5.39,5.393h-12.177c-2.977,0-5.392-2.414-5.392-5.393v-12.175
				C159.125,167.337,161.54,164.924,164.516,164.924z"/>
			<path id="rect147_3_" fill="#3465A4" d="M194.125,164.924H206.3c2.979,0,5.392,2.413,5.392,5.391v12.175
				c0,2.979-2.413,5.393-5.392,5.393h-12.175c-2.979,0-5.393-2.414-5.393-5.393v-12.175
				C188.732,167.337,191.146,164.924,194.125,164.924z"/>
			<path id="rect159_3_" fill="#204A87" d="M223.731,164.924h12.176c2.978,0,5.391,2.413,5.391,5.391v12.175
				c0,2.979-2.413,5.393-5.391,5.393h-12.176c-2.978,0-5.392-2.414-5.392-5.393v-12.175
				C218.34,167.337,220.754,164.924,223.731,164.924z"/>
			<path id="rect168_1_" fill="#EEEEEC" d="M164.516,268.941h12.177c2.977,0,5.39,2.413,5.39,5.392v12.177
				c0,2.977-2.413,5.392-5.39,5.392h-12.177c-2.977,0-5.392-2.415-5.392-5.392v-12.177
				C159.125,271.354,161.54,268.941,164.516,268.941z"/>
			<path id="rect169_1_" fill="#D3D7CF" d="M194.125,268.941H206.3c2.979,0,5.392,2.413,5.392,5.392v12.177
				c0,2.977-2.413,5.392-5.392,5.392h-12.175c-2.979,0-5.393-2.415-5.393-5.392v-12.177
				C188.732,271.354,191.146,268.941,194.125,268.941z"/>
			<path id="rect181_1_" fill="#BABDB6" d="M223.731,268.941h12.176c2.978,0,5.391,2.413,5.391,5.392v12.177
				c0,2.977-2.413,5.392-5.391,5.392h-12.176c-2.978,0-5.392-2.415-5.392-5.392v-12.177
				C218.34,271.354,220.754,268.941,223.731,268.941z"/>
			<path id="rect171_1_" fill="#555753" d="M194.125,298.549H206.3c2.979,0,5.392,2.416,5.392,5.392v12.176
				c0,2.979-2.413,5.391-5.392,5.391h-12.175c-2.979,0-5.393-2.412-5.393-5.391V303.94
				C188.732,300.965,191.146,298.549,194.125,298.549z"/>
			<path id="rect183_1_" fill="#2E3436" d="M223.731,298.549h12.176c2.978,0,5.391,2.416,5.391,5.392v12.176
				c0,2.979-2.413,5.391-5.391,5.391h-12.176c-2.978,0-5.392-2.412-5.392-5.391V303.94
				C218.34,300.965,220.754,298.549,223.731,298.549z"/>
			<path id="rect193_1_" fill="#888A85" d="M164.516,298.549h12.177c2.977,0,5.39,2.416,5.39,5.392v12.176
				c0,2.979-2.413,5.391-5.39,5.391h-12.177c-2.977,0-5.392-2.412-5.392-5.391V303.94
				C159.125,300.965,161.54,298.549,164.516,298.549z"/>
			<path id="rect301_1_" fill="#FCE94F" d="M164.516,46.493h12.177c2.977,0,5.39,2.413,5.39,5.391V64.06
				c0,2.978-2.413,5.392-5.39,5.392h-12.177c-2.977,0-5.392-2.414-5.392-5.392V51.884C159.125,48.906,161.54,46.493,164.516,46.493z
				"/>
			<path id="rect302_1_" fill="#EDD400" d="M194.125,46.493H206.3c2.979,0,5.392,2.413,5.392,5.391V64.06
				c0,2.978-2.413,5.392-5.392,5.392h-12.175c-2.979,0-5.393-2.414-5.393-5.392V51.884
				C188.732,48.906,191.146,46.493,194.125,46.493z"/>
			<path id="rect303_1_" fill="#C4A000" d="M223.731,46.493h12.176c2.978,0,5.391,2.413,5.391,5.391V64.06
				c0,2.978-2.413,5.392-5.391,5.392h-12.176c-2.978,0-5.392-2.414-5.392-5.392V51.884C218.34,48.906,220.754,46.493,223.731,46.493
				z"/>
			<path id="rect305_1_" fill="#E9B96E" d="M164.516,105.708h12.177c2.977,0,5.39,2.413,5.39,5.392v12.175
				c0,2.978-2.413,5.392-5.39,5.392h-12.177c-2.977,0-5.392-2.414-5.392-5.392V111.1
				C159.125,108.121,161.54,105.708,164.516,105.708z"/>
			<path id="rect306_1_" fill="#C17D11" d="M194.125,105.708H206.3c2.979,0,5.392,2.413,5.392,5.392v12.175
				c0,2.978-2.413,5.392-5.392,5.392h-12.175c-2.979,0-5.393-2.414-5.393-5.392V111.1
				C188.732,108.121,191.146,105.708,194.125,105.708z"/>
			<path id="rect307_1_" fill="#8F5902" d="M223.731,105.708h12.176c2.978,0,5.391,2.413,5.391,5.392v12.175
				c0,2.978-2.413,5.392-5.391,5.392h-12.176c-2.978,0-5.392-2.414-5.392-5.392V111.1
				C218.34,108.121,220.754,105.708,223.731,105.708z"/>
			<path id="rect141_2_" fill="#AD7FA8" d="M164.516,194.924h12.177c2.977,0,5.39,2.413,5.39,5.391v12.175
				c0,2.979-2.413,5.393-5.39,5.393h-12.177c-2.977,0-5.392-2.414-5.392-5.393v-12.175
				C159.125,197.337,161.54,194.924,164.516,194.924z"/>
			<path id="rect147_2_" fill="#75507B" d="M194.125,194.924H206.3c2.979,0,5.392,2.413,5.392,5.391v12.175
				c0,2.979-2.413,5.393-5.392,5.393h-12.175c-2.979,0-5.393-2.414-5.393-5.393v-12.175
				C188.732,197.337,191.146,194.924,194.125,194.924z"/>
			<path id="rect159_2_" fill="#5C3566" d="M223.731,194.924h12.176c2.978,0,5.391,2.413,5.391,5.391v12.175
				c0,2.979-2.413,5.393-5.391,5.393h-12.176c-2.978,0-5.392-2.414-5.392-5.393v-12.175
				C218.34,197.337,220.754,194.924,223.731,194.924z"/>
			<text transform="matrix(1 0 0 1 106.2781 60.8623)" fill="#A7A7A7" font-family="'TrebuchetMS-Bold'" font-size="11">Butter</text>
			<text transform="matrix(1 0 0 1 106.364 90.4697)" fill="#A7A7A7" font-family="'TrebuchetMS-Bold'" font-size="11">Orange</text>
			<text transform="matrix(1 0 0 1 91.5183 120.0771)" fill="#A7A7A7" font-family="'TrebuchetMS-Bold'" font-size="11">Chocolate</text>
			<text transform="matrix(1 0 0 1 85.8572 149.6845)" fill="#A7A7A7" font-family="'TrebuchetMS-Bold'" font-size="11">Chameleon</text>
			<text transform="matrix(1 0 0 1 99.1883 179.292)" fill="#A7A7A7" font-family="'TrebuchetMS-Bold'" font-size="11">Sky Blue</text>
			<text transform="matrix(1 0 0 1 117.3582 209.292)" fill="#A7A7A7" font-family="'TrebuchetMS-Bold'" font-size="11">Plum</text>
			<text transform="matrix(1 0 0 1 84.4392 238.8994)" fill="#A7A7A7" font-family="'TrebuchetMS-Bold'" font-size="11">Scarlet Red</text>
			<text transform="matrix(1 0 0 1 87.8387 283.3095)" fill="#A7A7A7" font-family="'TrebuchetMS-Bold'" font-size="11">Aluminium</text>
			<path id="rect170_1_" fill="#EF2929" d="M164.516,224.529h12.177c2.977,0,5.39,2.415,5.39,5.393v12.176
				c0,2.977-2.413,5.393-5.39,5.393h-12.177c-2.977,0-5.392-2.416-5.392-5.393v-12.176
				C159.125,226.944,161.54,224.529,164.516,224.529z"/>
			<path id="rect182_1_" fill="#CC0000" d="M194.125,224.529H206.3c2.979,0,5.392,2.415,5.392,5.393v12.176
				c0,2.977-2.413,5.393-5.392,5.393h-12.175c-2.979,0-5.393-2.416-5.393-5.393v-12.176
				C188.732,226.944,191.146,224.529,194.125,224.529z"/>
			<path id="rect344_1_" fill="#A40000" d="M223.326,224.529h12.175c2.978,0,5.394,2.415,5.394,5.393v12.176
				c0,2.977-2.416,5.393-5.394,5.393h-12.175c-2.978,0-5.392-2.416-5.392-5.393v-12.176
				C217.934,226.944,220.348,224.529,223.326,224.529z"/>
			<g id="g6581" inkscape:label="hex triplets">
				<text transform="matrix(1 0 0 1 162.7273 66.333)" font-family="'SegoeUI'" font-size="3.68">#fce94f</text>
				<text transform="matrix(1 0 0 1 162.7273 95.583)" font-family="'SegoeUI'" font-size="3.68">#fcaf3e</text>
				<text transform="matrix(1 0 0 1 162.7273 125.083)" font-family="'SegoeUI'" font-size="3.68">#e9b96e</text>
				<text transform="matrix(1 0 0 1 162.7273 154.333)" font-family="'SegoeUI'" font-size="3.68">#8ae234</text>
				<text transform="matrix(1 0 0 1 162.7273 183.833)" font-family="'SegoeUI'" font-size="3.68">#729fcf</text>
				<text transform="matrix(1 0 0 1 162.7273 214.083)" fill="#FFFFFF" font-family="'SegoeUI'" font-size="3.68">#ad7fa8</text>
				<text transform="matrix(1 0 0 1 162.7273 243.583)" fill="#FFFFFF" font-family="'SegoeUI'" font-size="3.68">#ef2929</text>
				<text transform="matrix(1 0 0 1 162.7273 288.583)" font-family="'SegoeUI'" font-size="3.68">#eeeeec</text>
				<text transform="matrix(1 0 0 1 162.7273 317.583)" fill="#FFFFFF" font-family="'SegoeUI'" font-size="3.68">#888a85</text>
				<text transform="matrix(1 0 0 1 192.7273 66.333)" font-family="'SegoeUI'" font-size="3.68">#edd400</text>
				<text transform="matrix(1 0 0 1 192.7273 95.583)" fill="#FFFFFF" font-family="'SegoeUI'" font-size="3.68">#f57900</text>
				<text transform="matrix(1 0 0 1 192.7273 125.083)" fill="#FFFFFF" font-family="'SegoeUI'" font-size="3.68">#c17d11</text>
				<text transform="matrix(1 0 0 1 192.7273 154.333)" font-family="'SegoeUI'" font-size="3.68">#73d216</text>
				<text transform="matrix(1 0 0 1 192.7273 183.833)" fill="#FFFFFF" font-family="'SegoeUI'" font-size="3.68">#3465a4</text>
				<text transform="matrix(1 0 0 1 192.7273 214.083)" fill="#FFFFFF" font-family="'SegoeUI'" font-size="3.68">#75507b</text>
				<text transform="matrix(1 0 0 1 192.7273 243.583)" fill="#FFFFFF" font-family="'SegoeUI'" font-size="3.68">#cc0000</text>
				<text transform="matrix(1 0 0 1 192.7273 288.583)" font-family="'SegoeUI'" font-size="3.68">#d3d7cf</text>
				<text transform="matrix(1 0 0 1 192.7273 317.583)" fill="#FFFFFF" font-family="'SegoeUI'" font-size="3.68">#555753</text>
				<text transform="matrix(1 0 0 1 222.7273 66.333)" fill="#FFFFFF" font-family="'SegoeUI'" font-size="3.68">#c4a000</text>
				<text transform="matrix(1 0 0 1 222.7273 95.583)" fill="#FFFFFF" font-family="'SegoeUI'" font-size="3.68">#ce5c00</text>
				<text transform="matrix(1 0 0 1 222.7273 125.083)" fill="#FFFFFF" font-family="'SegoeUI'" font-size="3.68">#8f5902</text>
				<text transform="matrix(1 0 0 1 222.7273 154.333)" fill="#FFFFFF" font-family="'SegoeUI'" font-size="3.68">#4e9a06</text>
				<text transform="matrix(1 0 0 1 222.7273 183.833)" fill="#FFFFFF" font-family="'SegoeUI'" font-size="3.68">#204a87</text>
				<text transform="matrix(1 0 0 1 222.7273 214.083)" fill="#FFFFFF" font-family="'SegoeUI'" font-size="3.68">#5c3566</text>
				<text transform="matrix(1 0 0 1 222.7273 243.583)" fill="#FFFFFF" font-family="'SegoeUI'" font-size="3.68">#a40000</text>
				<text transform="matrix(1 0 0 1 222.7273 288.583)" font-family="'SegoeUI'" font-size="3.68">#babdb6</text>
				<text transform="matrix(1 0 0 1 222.7273 317.583)" fill="#FFFFFF" font-family="'SegoeUI'" font-size="3.68">#2e3436</text>
			</g>
		</g>
		<g id="g6893" transform="translate(-216.4859,-66)">
			<g id="g5022" transform="matrix(1.9700223e-2,0,0,2.086758e-2,72.522079,106.16252)">
				
					<linearGradient id="rect4173_1_" gradientUnits="userSpaceOnUse" x1="293382.4688" y1="-446448.1563" x2="293382.4688" y2="-446691.0313" gradientTransform="matrix(0.0547 0 0 -0.0411 -16924.5781 -18501.0625)">
					<stop  offset="0" style="stop-color:#000000"/>
					<stop  offset="0.5" style="stop-color:#000000"/>
					<stop  offset="1" style="stop-color:#000000"/>
				</linearGradient>
				
					<rect id="rect4173" x="-1559.28" y="-150.707" opacity="0.4021" fill="url(#rect4173_1_)" enable-background="new    " width="1339.65" height="478.36"/>
				
					<radialGradient id="path5058_1_" cx="305782.5938" cy="-452198.625" r="117.1456" gradientTransform="matrix(0.0547 0 0 -0.0411 -16924.0332 -18501.0625)" gradientUnits="userSpaceOnUse">
					<stop  offset="0" style="stop-color:#000000"/>
					<stop  offset="1" style="stop-color:#000000"/>
				</radialGradient>
				<path id="path5058" sodipodi:nodetypes="cccc" opacity="0.4021" fill="url(#path5058_1_)" enable-background="new    " d="
					M-219.63-150.707v478.36c142.89,0.889,345.416-107.165,345.416-239.227C125.786-43.541-33.661-150.707-219.63-150.707z"/>
				
					<radialGradient id="path5018_1_" cx="-249419.375" cy="-452198.625" r="117.1454" gradientTransform="matrix(-0.0547 0 0 -0.0411 -15200.0195 -18501.0625)" gradientUnits="userSpaceOnUse">
					<stop  offset="0" style="stop-color:#000000"/>
					<stop  offset="1" style="stop-color:#000000"/>
				</radialGradient>
				<path id="path5018" sodipodi:nodetypes="cccc" opacity="0.4021" fill="url(#path5018_1_)" enable-background="new    " d="
					M-1559.28-150.707v478.36c-142.866,0.889-345.391-107.165-345.391-239.227C-1904.671-43.541-1745.248-150.707-1559.28-150.707z"
					/>
			</g>
			<path id="path1414" fill="#2E3436" stroke="#444329" stroke-linecap="round" stroke-linejoin="round" d="M40.5,77.5v31h29v-31
				l-4-4h-21L40.5,77.5z"/>
			<path id="path2380" sodipodi:nodetypes="ccccccc" d="M44.721,74l-3.723,3.754L42.187,78h25.814l1.001-0.246L65.139,74H44.721z"/>
			<linearGradient id="path2358_1_" gradientUnits="userSpaceOnUse" x1="36.6666" y1="220.5537" x2="37.4304" y2="176.3037">
				<stop  offset="0" style="stop-color:#FFFFFF"/>
				<stop  offset="1" style="stop-color:#FFFFFF"/>
			</linearGradient>
			<path id="path2358" sodipodi:nodetypes="ccccccc" fill="none" stroke="url(#path2358_1_)" d="M41.5,77.903V107.5h27V77.903
				L65.083,74.5H44.917L41.5,77.903z"/>
			<g id="g6794" transform="matrix(0.9997694,0,0,0.9997233,1.2003348e-2,2.54417e-2)">
				<g id="g4244" transform="matrix(0.7728685,0,0,0.7729063,77.800301,16.539219)">
					
						<linearGradient id="path3223_1_" gradientUnits="userSpaceOnUse" x1="-173.1266" y1="777.5937" x2="-184.9525" y2="789.4196" gradientTransform="matrix(0.6869 -0.6869 0.6869 0.6869 -444.6908 -569.2734)">
						<stop  offset="0" style="stop-color:#2E3436"/>
						<stop  offset="1" style="stop-color:#888A85"/>
					</linearGradient>
					
						<linearGradient id="path3223_2_" gradientUnits="userSpaceOnUse" x1="-110.4044" y1="137.7812" x2="-110.4044" y2="162.0312" gradientTransform="matrix(1 0 0 1 0 1.115937e-005)">
						<stop  offset="0" style="stop-color:#2E3436"/>
						<stop  offset="1" style="stop-color:#888A85"/>
					</linearGradient>
					<path id="path3223" fill="url(#path3223_1_)" stroke="url(#path3223_2_)" stroke-width="1.2942" d="M-39.046,84.204
						c-0.781,0.78-0.781,2.047,0,2.828c0.163,0.163,0.355,0.281,0.552,0.375c-2.676,3.788-2.676,8.896,0,12.684
						c-0.197,0.095-0.389,0.212-0.552,0.375c-0.781,0.781-0.781,2.049,0,2.828c0.78,0.781,2.047,0.781,2.828,0
						c0.163-0.163,0.281-0.355,0.375-0.552c3.788,2.677,8.896,2.677,12.684,0c0.095,0.197,0.212,0.389,0.375,0.552
						c0.781,0.781,2.048,0.781,2.828,0c0.78-0.78,0.78-2.047,0-2.828c-0.164-0.163-0.355-0.281-0.552-0.375
						c2.676-3.788,2.676-8.896,0-12.684c0.197-0.095,0.389-0.212,0.552-0.375c0.78-0.781,0.78-2.048,0-2.828s-2.047-0.78-2.828,0
						c-0.163,0.164-0.281,0.355-0.375,0.552c-3.788-2.676-8.896-2.676-12.684,0c-0.095-0.197-0.212-0.389-0.375-0.552
						C-36.998,83.424-38.265,83.424-39.046,84.204z"/>
					
						<linearGradient id="path3180_1_" gradientUnits="userSpaceOnUse" x1="-173.1266" y1="777.5937" x2="-184.9525" y2="789.4196" gradientTransform="matrix(0.6869 -0.6869 0.6869 0.6869 -444.6908 -569.2734)">
						<stop  offset="0" style="stop-color:#CCCDCB"/>
						<stop  offset="1" style="stop-color:#888A85"/>
					</linearGradient>
					<path id="path3180" fill="url(#path3180_1_)" d="M-39.046,84.204c-0.781,0.78-0.781,2.047,0,2.828
						c0.163,0.163,0.355,0.281,0.552,0.375c-2.676,3.788-2.676,8.896,0,12.684c-0.197,0.095-0.389,0.212-0.552,0.375
						c-0.781,0.781-0.781,2.049,0,2.828c0.78,0.781,2.047,0.781,2.828,0c0.163-0.163,0.281-0.355,0.375-0.552
						c3.788,2.677,8.896,2.677,12.684,0c0.095,0.197,0.212,0.389,0.375,0.552c0.781,0.781,2.048,0.781,2.828,0
						c0.78-0.78,0.78-2.047,0-2.828c-0.164-0.163-0.355-0.281-0.552-0.375c2.676-3.788,2.676-8.896,0-12.684
						c0.197-0.095,0.389-0.212,0.552-0.375c0.78-0.781,0.78-2.048,0-2.828s-2.047-0.78-2.828,0
						c-0.163,0.164-0.281,0.355-0.375,0.552c-3.788-2.676-8.896-2.676-12.684,0c-0.095-0.197-0.212-0.389-0.375-0.552
						C-36.998,83.424-38.265,83.424-39.046,84.204z"/>
					
						<linearGradient id="path3171_1_" gradientUnits="userSpaceOnUse" x1="338.5532" y1="707.535" x2="338.5532" y2="718.5309" gradientTransform="matrix(0.861 0 0 0.861 -320.9931 -519.688)">
						<stop  offset="0" style="stop-color:#2E3436"/>
						<stop  offset="1" style="stop-color:#888A85"/>
					</linearGradient>
					
						<path id="path3171" sodipodi:ry="8.75" sodipodi:rx="8.75" sodipodi:cy="93.75" sodipodi:cx="-29.75" sodipodi:type="arc" fill="url(#path3171_1_)" d="
						M-19.75,93.75c0-5.385-4.365-9.75-9.75-9.75s-9.75,4.365-9.75,9.75c0,5.384,4.365,9.749,9.75,9.749S-19.75,99.134-19.75,93.75z
						"/>
					
						<radialGradient id="path3165_1_" cx="266.9336" cy="-337.7492" r="8.7499" gradientTransform="matrix(0.9948 -0.0221 -0.0225 -1.0139 -302.6443 -238.2913)" gradientUnits="userSpaceOnUse">
						<stop  offset="0" style="stop-color:#D3D7CF"/>
						<stop  offset="1" style="stop-color:#555753"/>
					</radialGradient>
					
						<path id="path3165" sodipodi:ry="8.75" sodipodi:rx="8.75" sodipodi:cy="93.75" sodipodi:cx="-29.75" sodipodi:type="arc" fill="url(#path3165_1_)" d="
						M-20.75,93.75c0,4.833-3.917,8.751-8.75,8.751s-8.75-3.918-8.75-8.751c0-4.832,3.918-8.75,8.75-8.75S-20.75,88.918-20.75,93.75
						z"/>
					
						<radialGradient id="path3217_1_" cx="1778.6626" cy="115.4579" r="9.3754" gradientTransform="matrix(0.2278 0.2442 0.22 -0.22 -460.0779 -316.4233)" gradientUnits="userSpaceOnUse">
						<stop  offset="0" style="stop-color:#D3D7CF"/>
						<stop  offset="1" style="stop-color:#555753"/>
					</radialGradient>
					
						<path id="path3217" sodipodi:ry="9.375" sodipodi:rx="9.375" sodipodi:cy="9.375" sodipodi:cx="9.375" sodipodi:type="arc" fill="url(#path3217_1_)" d="
						M-27.273,96.139c-1.273,1.274-3.303,1.236-4.533-0.082c-1.23-1.319-1.194-3.421,0.079-4.695
						c1.274-1.274,3.304-1.237,4.533,0.082C-25.964,92.763-25.999,94.865-27.273,96.139z"/>
					<g id="g4238">
						
							<path id="path4228" sodipodi:ry="9.375" sodipodi:rx="9.375" sodipodi:cy="9.375" sodipodi:cx="9.375" sodipodi:type="arc" fill="#2E3436" d="
							M-37.269,86.013c-0.254,0.254-0.658,0.246-0.904-0.016s-0.238-0.682,0.016-0.936c0.254-0.253,0.658-0.246,0.904,0.016
							C-37.008,85.34-37.015,85.759-37.269,86.013z"/>
						
							<path id="path4232" sodipodi:ry="9.375" sodipodi:rx="9.375" sodipodi:cy="9.375" sodipodi:cx="9.375" sodipodi:type="arc" fill="#2E3436" d="
							M-20.733,102.549c-0.254,0.255-0.658,0.248-0.904-0.015c-0.245-0.263-0.238-0.682,0.016-0.937
							c0.254-0.254,0.658-0.246,0.904,0.016S-20.479,102.296-20.733,102.549z"/>
						
							<path id="path4234" sodipodi:ry="9.375" sodipodi:rx="9.375" sodipodi:cy="9.375" sodipodi:cx="9.375" sodipodi:type="arc" fill="#2E3436" d="
							M-20.733,86.013c-0.254,0.254-0.658,0.246-0.904-0.016s-0.238-0.682,0.016-0.936c0.254-0.253,0.658-0.246,0.904,0.016
							C-20.472,85.34-20.479,85.759-20.733,86.013z"/>
						
							<path id="path4236" sodipodi:ry="9.375" sodipodi:rx="9.375" sodipodi:cy="9.375" sodipodi:cx="9.375" sodipodi:type="arc" fill="#2E3436" d="
							M-37.269,102.549c-0.254,0.255-0.658,0.248-0.904-0.015c-0.245-0.263-0.238-0.682,0.016-0.937
							c0.254-0.254,0.658-0.246,0.904,0.016S-37.015,102.296-37.269,102.549z"/>
					</g>
				</g>
				<g id="g6730" transform="matrix(0.7771446,0,0,0.7780435,77.925766,16.058422)">
					
						<path id="path6732" sodipodi:ry="9.375" sodipodi:rx="9.375" sodipodi:cy="9.375" sodipodi:cx="9.375" sodipodi:type="arc" fill="#2E3436" d="
						M-37.269,86.013c-0.254,0.254-0.659,0.247-0.904-0.016c-0.245-0.263-0.238-0.682,0.016-0.936
						c0.254-0.254,0.658-0.246,0.904,0.016C-37.008,85.34-37.015,85.759-37.269,86.013z"/>
					
						<path id="path6734" sodipodi:ry="9.375" sodipodi:rx="9.375" sodipodi:cy="9.375" sodipodi:cx="9.375" sodipodi:type="arc" fill="#2E3436" d="
						M-20.733,102.55c-0.254,0.254-0.659,0.246-0.904-0.018c-0.245-0.262-0.238-0.68,0.016-0.935
						c0.254-0.254,0.659-0.246,0.904,0.016C-20.472,101.877-20.479,102.296-20.733,102.55z"/>
					
						<path id="path6736" sodipodi:ry="9.375" sodipodi:rx="9.375" sodipodi:cy="9.375" sodipodi:cx="9.375" sodipodi:type="arc" fill="#2E3436" d="
						M-20.733,86.013c-0.254,0.254-0.659,0.247-0.904-0.016c-0.245-0.263-0.238-0.682,0.016-0.936
						c0.254-0.254,0.659-0.246,0.904,0.016C-20.472,85.34-20.479,85.759-20.733,86.013z"/>
					
						<path id="path6738" sodipodi:ry="9.375" sodipodi:rx="9.375" sodipodi:cy="9.375" sodipodi:cx="9.375" sodipodi:type="arc" fill="#2E3436" d="
						M-37.269,102.55c-0.254,0.254-0.659,0.246-0.904-0.018c-0.245-0.262-0.238-0.68,0.016-0.935
						c0.254-0.254,0.658-0.246,0.904,0.016C-37.008,101.877-37.015,102.296-37.269,102.55z"/>
				</g>
			</g>
			
				<path id="path6850" sodipodi:ry="2.0625" sodipodi:rx="2.0625" sodipodi:cy="101.6875" sodipodi:cx="29.4375" sodipodi:type="arc" fill="#EDD400" stroke="#000000" stroke-width="0.825" d="
				M57.5,103c0,1.381-1.119,2.5-2.5,2.5s-2.5-1.119-2.5-2.5s1.119-2.5,2.5-2.5S57.5,101.619,57.5,103z"/>
			
				<path id="path6852" sodipodi:ry="2.0625" sodipodi:rx="2.0625" sodipodi:cy="101.6875" sodipodi:cx="29.4375" sodipodi:type="arc" fill="#00FF00" stroke="#000000" stroke-width="0.825" d="
				M49.5,103c0,1.381-1.119,2.5-2.5,2.5s-2.5-1.119-2.5-2.5s1.119-2.5,2.5-2.5S49.5,101.619,49.5,103z"/>
			
				<path id="path6854" sodipodi:ry="2.0625" sodipodi:rx="2.0625" sodipodi:cy="101.6875" sodipodi:cx="29.4375" sodipodi:type="arc" fill="#EF2929" stroke="#000000" stroke-width="0.825" d="
				M65.5,103c0,1.381-1.119,2.5-2.5,2.5s-2.5-1.119-2.5-2.5s1.119-2.5,2.5-2.5S65.5,101.619,65.5,103z"/>
		</g>
		
			<linearGradient id="rect5986_1_" gradientUnits="userSpaceOnUse" x1="142.9004" y1="-238.5019" x2="142.9004" y2="-249.9102" gradientTransform="matrix(1 0 0 -1 -134.875 -211.0918)">
			<stop  offset="0" style="stop-color:#1A1A1A"/>
			<stop  offset="1" style="stop-color:#000000"/>
		</linearGradient>
		<path id="rect5986" fill="url(#rect5986_1_)" d="M7.525,3h1c1.656,0,3,1.343,3,3v34c0,1.656-1.344,3-3,3h-1c-1.657,0-3-1.344-3-3
			V6C4.525,4.343,5.868,3,7.525,3z"/>
		<path id="rect6972" fill="#4D4D4D" d="M7.525,9h1c1.104,0,2,0.896,2,2v26c0,1.104-0.896,2-2,2h-1c-1.105,0-2-0.896-2-2V11
			C5.525,9.896,6.42,9,7.525,9z"/>
		<path id="rect6959" fill="#58FF00" d="M7.525,31h1c1.104,0,2,0.598,2,1.334v4.332c0,0.736-0.896,1.334-2,1.334h-1
			c-1.105,0-2-0.598-2-1.334v-4.332C5.525,31.598,6.42,31,7.525,31z"/>
		<path id="rect6961" fill="#808080" d="M7.525,4v1h-1v1h1v1h1V6h1V5h-1V4H7.525z"/>
		<rect id="rect6967" x="6.525" y="40" fill="#808080" width="3" height="1"/>
		
			<linearGradient id="rect6982_1_" gradientUnits="userSpaceOnUse" x1="142.4004" y1="-234.0918" x2="145.4004" y2="-234.0918" gradientTransform="matrix(1 0 0 -1 -134.875 -211.0918)">
			<stop  offset="0" style="stop-color:#FFFFFF"/>
			<stop  offset="1" style="stop-color:#FFFFFF"/>
		</linearGradient>
		<path id="rect6982" opacity="0.4" fill="url(#rect6982_1_)" enable-background="new    " d="M7.525,8v30h1c1.107,0,2-0.893,2-2V10
			c0-1.108-0.893-2-2-2H7.525z"/>
		
			<g id="path6989" sodipodi:ry="8.75" sodipodi:rx="8.75" sodipodi:cy="93.75" sodipodi:cx="-29.75" sodipodi:type="arc" opacity="0.3185" filter="url(#filter5011)" enable-background="new    ">
			<ellipse cx="8.025" cy="43" rx="5.5" ry="2"/>
		</g>
	</g>
</g>
<g id="Layer_2">
	<rect x="-41.375" y="46.063" fill="#FF0000" width="2.938" height="2.438"/>
	<rect x="-41.625" y="0.375" fill="#00FF00" width="2.938" height="2.438"/>
	<rect x="-41.562" y="3.875" fill="#2CFF00" width="2.938" height="2.438"/>
	<rect x="-41.75" y="7.563" fill="#58FF00" width="2.938" height="2.438"/>
	<rect x="-41.75" y="11" fill="#90FF00" width="2.938" height="2.438"/>
	<rect x="-41.687" y="14.5" fill="#BBFF00" width="2.938" height="2.438"/>
	<rect x="-41.75" y="18.375" fill="#E0FF00" width="2.938" height="2.438"/>
	<rect x="-41.75" y="21.813" fill="#FFFF00" width="2.938" height="2.438"/>
	<rect x="-41.687" y="25.313" fill="#FFDA00" width="2.938" height="2.438"/>
	<rect x="-41.437" y="28.688" fill="#FFB600" width="2.938" height="2.438"/>
	<rect x="-41.437" y="32.125" fill="#FF8B00" width="2.938" height="2.438"/>
	<rect x="-41.375" y="35.625" fill="#FF6D00" width="2.938" height="2.438"/>
	<rect x="-41.437" y="39.5" fill="#FF4800" width="2.938" height="2.438"/>
	<rect x="-41.437" y="42.938" fill="#FF2400" width="2.938" height="2.438"/>
</g>
</svg>
